<svg id="mermaid-fe33f011-eea4-4fdf-a1ec-84d3e65ab240" width="1175.3372802734375" xmlns="http://www.w3.org/2000/svg" class="flowchart" style="max-width: 1111.3372802734375px;" viewBox="-28 -28 1175.3372802734375 1611" role="graphics-document document" aria-roledescription="flowchart-v2" xmlns:xlink="http://www.w3.org/1999/xlink" height="1611"><rect x="-28" y="-28" width="1175.3372802734375" height="1611" fill="#ffffff"/><style>#mermaid-fe33f011-eea4-4fdf-a1ec-84d3e65ab240{font-family:ui-sans-serif,-apple-system,BlinkMacSystemFont,"Segoe UI Variable Display","Segoe UI",Helvetica,"Apple Color Emoji","Noto Sans Arabic","Noto Sans Hebrew",Arial,sans-serif,"Segoe UI Emoji","Segoe UI Symbol";font-size:16px;fill:#000000;}@keyframes edge-animation-frame{from{stroke-dashoffset:0;}}@keyframes dash{to{stroke-dashoffset:0;}}#mermaid-fe33f011-eea4-4fdf-a1ec-84d3e65ab240 .edge-animation-slow{stroke-dasharray:9,5!important;stroke-dashoffset:900;animation:dash 50s linear infinite;stroke-linecap:round;}#mermaid-fe33f011-eea4-4fdf-a1ec-84d3e65ab240 .edge-animation-fast{stroke-dasharray:9,5!important;stroke-dashoffset:900;animation:dash 20s linear infinite;stroke-linecap:round;}#mermaid-fe33f011-eea4-4fdf-a1ec-84d3e65ab240 .error-icon{fill:#552222;}#mermaid-fe33f011-eea4-4fdf-a1ec-84d3e65ab240 .error-text{fill:#552222;stroke:#552222;}#mermaid-fe33f011-eea4-4fdf-a1ec-84d3e65ab240 .edge-thickness-normal{stroke-width:1px;}#mermaid-fe33f011-eea4-4fdf-a1ec-84d3e65ab240 .edge-thickness-thick{stroke-width:3.5px;}#mermaid-fe33f011-eea4-4fdf-a1ec-84d3e65ab240 .edge-pattern-solid{stroke-dasharray:0;}#mermaid-fe33f011-eea4-4fdf-a1ec-84d3e65ab240 .edge-thickness-invisible{stroke-width:0;fill:none;}#mermaid-fe33f011-eea4-4fdf-a1ec-84d3e65ab240 .edge-pattern-dashed{stroke-dasharray:3;}#mermaid-fe33f011-eea4-4fdf-a1ec-84d3e65ab240 .edge-pattern-dotted{stroke-dasharray:2;}#mermaid-fe33f011-eea4-4fdf-a1ec-84d3e65ab240 .marker{fill:#666;stroke:#666;}#mermaid-fe33f011-eea4-4fdf-a1ec-84d3e65ab240 .marker.cross{stroke:#666;}#mermaid-fe33f011-eea4-4fdf-a1ec-84d3e65ab240 svg{font-family:ui-sans-serif,-apple-system,BlinkMacSystemFont,"Segoe UI Variable Display","Segoe UI",Helvetica,"Apple Color Emoji","Noto Sans Arabic","Noto Sans Hebrew",Arial,sans-serif,"Segoe UI Emoji","Segoe UI Symbol";font-size:16px;}#mermaid-fe33f011-eea4-4fdf-a1ec-84d3e65ab240 p{margin:0;}#mermaid-fe33f011-eea4-4fdf-a1ec-84d3e65ab240 .label{font-family:ui-sans-serif,-apple-system,BlinkMacSystemFont,"Segoe UI Variable Display","Segoe UI",Helvetica,"Apple Color Emoji","Noto Sans Arabic","Noto Sans Hebrew",Arial,sans-serif,"Segoe UI Emoji","Segoe UI Symbol";color:#000000;}#mermaid-fe33f011-eea4-4fdf-a1ec-84d3e65ab240 .cluster-label text{fill:#333;}#mermaid-fe33f011-eea4-4fdf-a1ec-84d3e65ab240 .cluster-label span{color:#333;}#mermaid-fe33f011-eea4-4fdf-a1ec-84d3e65ab240 .cluster-label span p{background-color:transparent;}#mermaid-fe33f011-eea4-4fdf-a1ec-84d3e65ab240 .label text,#mermaid-fe33f011-eea4-4fdf-a1ec-84d3e65ab240 span{fill:#000000;color:#000000;}#mermaid-fe33f011-eea4-4fdf-a1ec-84d3e65ab240 .node rect,#mermaid-fe33f011-eea4-4fdf-a1ec-84d3e65ab240 .node circle,#mermaid-fe33f011-eea4-4fdf-a1ec-84d3e65ab240 .node ellipse,#mermaid-fe33f011-eea4-4fdf-a1ec-84d3e65ab240 .node polygon,#mermaid-fe33f011-eea4-4fdf-a1ec-84d3e65ab240 .node path{fill:#eee;stroke:#999;stroke-width:1px;}#mermaid-fe33f011-eea4-4fdf-a1ec-84d3e65ab240 .rough-node .label text,#mermaid-fe33f011-eea4-4fdf-a1ec-84d3e65ab240 .node .label text,#mermaid-fe33f011-eea4-4fdf-a1ec-84d3e65ab240 .image-shape .label,#mermaid-fe33f011-eea4-4fdf-a1ec-84d3e65ab240 .icon-shape .label{text-anchor:middle;}#mermaid-fe33f011-eea4-4fdf-a1ec-84d3e65ab240 .node .katex path{fill:#000;stroke:#000;stroke-width:1px;}#mermaid-fe33f011-eea4-4fdf-a1ec-84d3e65ab240 .rough-node .label,#mermaid-fe33f011-eea4-4fdf-a1ec-84d3e65ab240 .node .label,#mermaid-fe33f011-eea4-4fdf-a1ec-84d3e65ab240 .image-shape .label,#mermaid-fe33f011-eea4-4fdf-a1ec-84d3e65ab240 .icon-shape .label{text-align:center;}#mermaid-fe33f011-eea4-4fdf-a1ec-84d3e65ab240 .node.clickable{cursor:pointer;}#mermaid-fe33f011-eea4-4fdf-a1ec-84d3e65ab240 .root .anchor path{fill:#666!important;stroke-width:0;stroke:#666;}#mermaid-fe33f011-eea4-4fdf-a1ec-84d3e65ab240 .arrowheadPath{fill:#333333;}#mermaid-fe33f011-eea4-4fdf-a1ec-84d3e65ab240 .edgePath .path{stroke:#666;stroke-width:2.0px;}#mermaid-fe33f011-eea4-4fdf-a1ec-84d3e65ab240 .flowchart-link{stroke:#666;fill:none;}#mermaid-fe33f011-eea4-4fdf-a1ec-84d3e65ab240 .edgeLabel{background-color:white;text-align:center;}#mermaid-fe33f011-eea4-4fdf-a1ec-84d3e65ab240 .edgeLabel p{background-color:white;}#mermaid-fe33f011-eea4-4fdf-a1ec-84d3e65ab240 .edgeLabel rect{opacity:0.5;background-color:white;fill:white;}#mermaid-fe33f011-eea4-4fdf-a1ec-84d3e65ab240 .labelBkg{background-color:rgba(255, 255, 255, 0.5);}#mermaid-fe33f011-eea4-4fdf-a1ec-84d3e65ab240 .cluster rect{fill:hsl(0, 0%, 98.9215686275%);stroke:#707070;stroke-width:1px;}#mermaid-fe33f011-eea4-4fdf-a1ec-84d3e65ab240 .cluster text{fill:#333;}#mermaid-fe33f011-eea4-4fdf-a1ec-84d3e65ab240 .cluster span{color:#333;}#mermaid-fe33f011-eea4-4fdf-a1ec-84d3e65ab240 div.mermaidTooltip{position:absolute;text-align:center;max-width:200px;padding:2px;font-family:ui-sans-serif,-apple-system,BlinkMacSystemFont,"Segoe UI Variable Display","Segoe UI",Helvetica,"Apple Color Emoji","Noto Sans Arabic","Noto Sans Hebrew",Arial,sans-serif,"Segoe UI Emoji","Segoe UI Symbol";font-size:12px;background:hsl(-160, 0%, 93.3333333333%);border:1px solid #707070;border-radius:2px;pointer-events:none;z-index:100;}#mermaid-fe33f011-eea4-4fdf-a1ec-84d3e65ab240 .flowchartTitleText{text-anchor:middle;font-size:18px;fill:#000000;}#mermaid-fe33f011-eea4-4fdf-a1ec-84d3e65ab240 rect.text{fill:none;stroke-width:0;}#mermaid-fe33f011-eea4-4fdf-a1ec-84d3e65ab240 .icon-shape,#mermaid-fe33f011-eea4-4fdf-a1ec-84d3e65ab240 .image-shape{background-color:white;text-align:center;}#mermaid-fe33f011-eea4-4fdf-a1ec-84d3e65ab240 .icon-shape p,#mermaid-fe33f011-eea4-4fdf-a1ec-84d3e65ab240 .image-shape p{background-color:white;padding:2px;}#mermaid-fe33f011-eea4-4fdf-a1ec-84d3e65ab240 .icon-shape rect,#mermaid-fe33f011-eea4-4fdf-a1ec-84d3e65ab240 .image-shape rect{opacity:0.5;background-color:white;fill:white;}#mermaid-fe33f011-eea4-4fdf-a1ec-84d3e65ab240 .label-icon{display:inline-block;height:1em;overflow:visible;vertical-align:-0.125em;}#mermaid-fe33f011-eea4-4fdf-a1ec-84d3e65ab240 .node .label-icon path{fill:currentColor;stroke:revert;stroke-width:revert;}#mermaid-fe33f011-eea4-4fdf-a1ec-84d3e65ab240 :root{--mermaid-font-family:"trebuchet ms",verdana,arial,sans-serif;}</style><g><marker id="mermaid-fe33f011-eea4-4fdf-a1ec-84d3e65ab240_flowchart-v2-pointEnd" class="marker flowchart-v2" viewBox="0 0 10 10" refX="5" refY="5" markerUnits="userSpaceOnUse" markerWidth="8" markerHeight="8" orient="auto"><path d="M 0 0 L 10 5 L 0 10 z" class="arrowMarkerPath" style="stroke-width: 1; stroke-dasharray: 1, 0;"/></marker><marker id="mermaid-fe33f011-eea4-4fdf-a1ec-84d3e65ab240_flowchart-v2-pointStart" class="marker flowchart-v2" viewBox="0 0 10 10" refX="4.5" refY="5" markerUnits="userSpaceOnUse" markerWidth="8" markerHeight="8" orient="auto"><path d="M 0 5 L 10 10 L 10 0 z" class="arrowMarkerPath" style="stroke-width: 1; stroke-dasharray: 1, 0;"/></marker><marker id="mermaid-fe33f011-eea4-4fdf-a1ec-84d3e65ab240_flowchart-v2-circleEnd" class="marker flowchart-v2" viewBox="0 0 10 10" refX="11" refY="5" markerUnits="userSpaceOnUse" markerWidth="11" markerHeight="11" orient="auto"><circle cx="5" cy="5" r="5" class="arrowMarkerPath" style="stroke-width: 1; stroke-dasharray: 1, 0;"/></marker><marker id="mermaid-fe33f011-eea4-4fdf-a1ec-84d3e65ab240_flowchart-v2-circleStart" class="marker flowchart-v2" viewBox="0 0 10 10" refX="-1" refY="5" markerUnits="userSpaceOnUse" markerWidth="11" markerHeight="11" orient="auto"><circle cx="5" cy="5" r="5" class="arrowMarkerPath" style="stroke-width: 1; stroke-dasharray: 1, 0;"/></marker><marker id="mermaid-fe33f011-eea4-4fdf-a1ec-84d3e65ab240_flowchart-v2-crossEnd" class="marker cross flowchart-v2" viewBox="0 0 11 11" refX="12" refY="5.2" markerUnits="userSpaceOnUse" markerWidth="11" markerHeight="11" orient="auto"><path d="M 1,1 l 9,9 M 10,1 l -9,9" class="arrowMarkerPath" style="stroke-width: 2; stroke-dasharray: 1, 0;"/></marker><marker id="mermaid-fe33f011-eea4-4fdf-a1ec-84d3e65ab240_flowchart-v2-crossStart" class="marker cross flowchart-v2" viewBox="0 0 11 11" refX="-1" refY="5.2" markerUnits="userSpaceOnUse" markerWidth="11" markerHeight="11" orient="auto"><path d="M 1,1 l 9,9 M 10,1 l -9,9" class="arrowMarkerPath" style="stroke-width: 2; stroke-dasharray: 1, 0;"/></marker></g><g class="subgraphs"><g class="subgraph"><g class="cluster" id="gs_platform" data-look="classic"><rect style="" x="680.5427033376369" y="1258" width="287.2230613766" height="285"/><g class="cluster-label" transform="translate(752.622984025937, 1258)"><foreignObject width="143.0625" height="24"><div xmlns="http://www.w3.org/1999/xhtml" style="display: table-cell; white-space: nowrap; line-height: 1.5; max-width: 200px; text-align: center;"><span class="nodeLabel"><p>GreenShift Platform</p></span></div></foreignObject></g></g></g><g class="subgraph"><g class="cluster" id="cluster" data-look="classic"><rect style="" x="12" y="12" width="1095.337314977238" height="1041"/><g class="cluster-label" transform="translate(459.66865748861903, 12)"><foreignObject width="200" height="48"><div xmlns="http://www.w3.org/1999/xhtml" style="display: table; white-space: break-spaces; line-height: 1.5; max-width: 200px; text-align: center; width: 200px;"><span class="nodeLabel"><p>Customer Kubernetes Cluster</p></span></div></foreignObject></g></g></g><g class="subgraph"><g class="cluster" id="k8s_cp" data-look="classic"><rect style="" x="454.2977476939002" y="936" width="192.6640625" height="105"/><g class="cluster-label" transform="translate(458.2977476939002, 936)"><foreignObject width="184.6640625" height="24"><div xmlns="http://www.w3.org/1999/xhtml" style="display: table-cell; white-space: nowrap; line-height: 1.5; max-width: 200px; text-align: center;"><span class="nodeLabel"><p>Kubernetes Control Plane</p></span></div></foreignObject></g></g></g><g class="subgraph"><g class="cluster" id="node_layer" data-look="classic"><rect style="" x="698.2748149772381" y="75" width="397.0625" height="129"/><g class="cluster-label" transform="translate(829.3216899772381, 75)"><foreignObject width="134.96875" height="24"><div xmlns="http://www.w3.org/1999/xhtml" style="display: table-cell; white-space: nowrap; line-height: 1.5; max-width: 200px; text-align: center;"><span class="nodeLabel"><p>Worker Nodes (all)</p></span></div></foreignObject></g></g></g><g class="subgraph"><g class="cluster" id="gs_ns" data-look="classic"><rect style="" x="24" y="327" width="994.875" height="456"/><g class="cluster-label" transform="translate(440.8828125, 327)"><foreignObject width="161.109375" height="48"><div xmlns="http://www.w3.org/1999/xhtml" style="display: table-cell; white-space: nowrap; line-height: 1.5; max-width: 200px; text-align: center;"><span class="nodeLabel"><p>greenshift namespace <br />(single Helm release)</p></span></div></foreignObject></g></g></g></g><g class="nodes"><g class="node default" id="flowchart-GS_SERVICES-8" transform="translate(822.5427033376369, 1348)"><rect class="basic label-container" style="" x="-130" y="-51" width="260" height="102"/><g class="label" style="" transform="translate(-100, -36)"><rect/><foreignObject width="200" height="72"><div xmlns="http://www.w3.org/1999/xhtml" style="display: table; white-space: break-spaces; line-height: 1.5; max-width: 200px; text-align: center; width: 200px;"><span class="nodeLabel"><p>GreenShift Cloud Services <br />(Ingestion, Processing &amp; Storage)</p></span></div></foreignObject></g></g><g class="node default" id="flowchart-UI-9" transform="translate(825.7657647142369, 1480)"><rect class="basic label-container" style="" x="-130" y="-51" width="260" height="102"/><g class="label" style="" transform="translate(-100, -36)"><rect/><foreignObject width="200" height="72"><div xmlns="http://www.w3.org/1999/xhtml" style="display: table; white-space: break-spaces; line-height: 1.5; max-width: 200px; text-align: center; width: 200px;"><span class="nodeLabel"><p>GreenShift UI <br />(Cost Explorer, K8s Rightsizing)</p></span></div></foreignObject></g></g><g class="node default" id="flowchart-APISERVER-7" transform="translate(550.6297789439002, 1002)"><rect class="basic label-container" style="" x="-67.8515625" y="-27" width="135.703125" height="54"/><g class="label" style="" transform="translate(-37.8515625, -12)"><rect/><foreignObject width="75.703125" height="24"><div xmlns="http://www.w3.org/1999/xhtml" style="display: table-cell; white-space: nowrap; line-height: 1.5; max-width: 200px; text-align: center;"><span class="nodeLabel"><p>API Server</p></span></div></foreignObject></g></g><g class="node default" id="flowchart-CADV-5" transform="translate(971.1185649772381, 153)"><rect class="basic label-container" style="" x="-112.21875" y="-39" width="224.4375" height="78"/><g class="label" style="" transform="translate(-82.21875, -24)"><rect/><foreignObject width="164.4375" height="48"><div xmlns="http://www.w3.org/1999/xhtml" style="display: table-cell; white-space: nowrap; line-height: 1.5; max-width: 200px; text-align: center;"><span class="nodeLabel"><p>cAdvisor <br />(embedded in kubelet)</p></span></div></foreignObject></g></g><g class="node default" id="flowchart-KUBELET-6" transform="translate(769.5873149772381, 153)"><rect class="basic label-container" style="" x="-59.3125" y="-39" width="118.625" height="78"/><g class="label" style="" transform="translate(-29.3125, -24)"><rect/><foreignObject width="58.625" height="48"><div xmlns="http://www.w3.org/1999/xhtml" style="display: table-cell; white-space: nowrap; line-height: 1.5; max-width: 200px; text-align: center;"><span class="nodeLabel"><p>kubelet <br />/metrics</p></span></div></foreignObject></g></g><g class="node default" id="flowchart-PS-0" transform="translate(800.0770089285714, 708)"><rect class="basic label-container" style="" x="-130" y="-63" width="260" height="126"/><g class="label" style="" transform="translate(-100, -48)"><rect/><foreignObject width="200" height="96"><div xmlns="http://www.w3.org/1999/xhtml" style="display: table; white-space: break-spaces; line-height: 1.5; max-width: 200px; text-align: center; width: 200px;"><span class="nodeLabel"><p>Prometheus Server Deployment <br />Agent Mode (no local storage)</p></span></div></foreignObject></g></g><g class="node default" id="flowchart-KSM-1" transform="translate(136.2421875, 453)"><rect class="basic label-container" style="" x="-100.2421875" y="-39" width="200.484375" height="78"/><g class="label" style="" transform="translate(-70.2421875, -24)"><rect/><foreignObject width="140.484375" height="48"><div xmlns="http://www.w3.org/1999/xhtml" style="display: table-cell; white-space: nowrap; line-height: 1.5; max-width: 200px; text-align: center;"><span class="nodeLabel"><p>kube-state-metrics <br />Deployment</p></span></div></foreignObject></g></g><g class="node default" id="flowchart-NE-2" transform="translate(680.06640625, 453)"><rect class="basic label-container" style="" x="-123.58203125" y="-39" width="247.1640625" height="78"/><g class="label" style="" transform="translate(-93.58203125, -24)"><rect/><foreignObject width="187.1640625" height="48"><div xmlns="http://www.w3.org/1999/xhtml" style="display: table-cell; white-space: nowrap; line-height: 1.5; max-width: 200px; text-align: center;"><span class="nodeLabel"><p>node-exporter <br />DaemonSet — every node</p></span></div></foreignObject></g></g><g class="node default" id="flowchart-PG-3" transform="translate(912.76171875, 453)"><rect class="basic label-container" style="" x="-78.11328125" y="-39" width="156.2265625" height="78"/><g class="label" style="" transform="translate(-48.11328125, -24)"><rect/><foreignObject width="96.2265625" height="48"><div xmlns="http://www.w3.org/1999/xhtml" style="display: table-cell; white-space: nowrap; line-height: 1.5; max-width: 200px; text-align: center;"><span class="nodeLabel"><p>pushgateway <br />Deployment</p></span></div></foreignObject></g></g><g class="node default" id="flowchart-KSS-4" transform="translate(396.484375, 441)"><rect class="basic label-container" style="" x="-130" y="-51" width="260" height="102"/><g class="label" style="" transform="translate(-100, -36)"><rect/><foreignObject width="200" height="72"><div xmlns="http://www.w3.org/1999/xhtml" style="display: table; white-space: break-spaces; line-height: 1.5; max-width: 200px; text-align: center; width: 200px;"><span class="nodeLabel"><p>kube-service-selectors <br />Deployment — GreenShift custom</p></span></div></foreignObject></g></g></g><g class="edges edgePaths"><path d="M822.543,1399L822.543,1401.5C822.543,1404,822.543,1409,823.08,1411.5C823.617,1414,824.691,1414,825.229,1415.833C825.766,1417.667,825.766,1421.333,825.766,1423.167L825.766,1425" id="L_GS_SERVICES_UI_0_0" class="edge-thickness-normal edge-pattern-solid edge-thickness-normal edge-pattern-solid flowchart-link" style="" marker-end="url(#mermaid-fe33f011-eea4-4fdf-a1ec-84d3e65ab240_flowchart-v2-pointEnd)"/><path d="M169.656,492L169.656,514.167C169.656,536.333,169.656,580.667,170.018,603.305C170.38,625.943,171.104,626.886,171.937,627.719C172.771,628.552,173.713,629.276,262.112,629.638C350.511,630,526.365,630,614.764,630.362C703.163,630.724,704.105,631.448,704.939,632.281C705.772,633.114,706.496,634.057,706.858,635.529C707.22,637,707.22,639,707.22,640L707.22,641" id="L_KSM_PS_0_0" class="edge-thickness-normal edge-pattern-solid edge-thickness-normal edge-pattern-solid flowchart-link" style="" marker-end="url(#mermaid-fe33f011-eea4-4fdf-a1ec-84d3e65ab240_flowchart-v2-pointEnd)"/><path d="M680.066,492L680.066,509.167C680.066,526.333,680.066,560.667,680.428,578.305C680.79,595.943,681.514,596.886,682.347,597.719C683.181,598.552,684.124,599.276,699.835,599.638C715.546,600,746.026,600,761.737,600.362C777.448,600.724,778.391,601.448,779.225,602.281C780.058,603.114,780.782,604.057,781.144,610.529C781.506,617,781.506,629,781.506,635L781.506,641" id="L_NE_PS_0_0" class="edge-thickness-normal edge-pattern-solid edge-thickness-normal edge-pattern-solid flowchart-link" style="" marker-end="url(#mermaid-fe33f011-eea4-4fdf-a1ec-84d3e65ab240_flowchart-v2-pointEnd)"/><path d="M912.762,492L912.762,509.167C912.762,526.333,912.762,560.667,912.4,578.305C912.038,595.943,911.314,596.886,910.481,597.719C909.647,598.552,908.705,599.276,900.405,599.638C892.105,600,876.448,600,868.148,600.362C859.848,600.724,858.906,601.448,858.072,602.281C857.239,603.114,856.515,604.057,856.153,610.529C855.791,617,855.791,629,855.791,635L855.791,641" id="L_PG_PS_0_0" class="edge-thickness-normal edge-pattern-solid edge-thickness-normal edge-pattern-solid flowchart-link" style="" marker-end="url(#mermaid-fe33f011-eea4-4fdf-a1ec-84d3e65ab240_flowchart-v2-pointEnd)"/><path d="M439.818,492L439.818,511.667C439.818,531.333,439.818,570.667,440.18,590.805C440.542,610.943,441.265,611.886,442.099,612.719C442.932,613.552,443.875,614.276,493.437,614.638C542.999,615,641.181,615,690.743,615.362C740.306,615.724,741.248,616.448,742.082,617.281C742.915,618.114,743.639,619.057,744.001,623.029C744.363,627,744.363,634,744.363,637.5L744.363,641" id="L_KSS_PS_0_0" class="edge-thickness-normal edge-pattern-solid edge-thickness-normal edge-pattern-solid flowchart-link" style="" marker-end="url(#mermaid-fe33f011-eea4-4fdf-a1ec-84d3e65ab240_flowchart-v2-pointEnd)"/><path d="M971.119,192L971.119,195.25C971.119,198.5,971.119,205,971.119,222.917C971.119,240.833,971.119,270.167,971.48,285.305C971.842,300.443,972.566,301.386,973.4,302.219C974.233,303.052,975.176,303.776,980.607,304.138C986.037,304.5,995.956,304.5,1000.916,307C1005.875,309.5,1005.875,314.5,1005.875,365.417C1005.875,416.333,1005.875,513.167,1005.513,562.055C1005.151,610.943,1004.427,611.886,1003.594,612.719C1002.761,613.552,1001.818,614.276,984.19,614.638C966.561,615,932.248,615,914.62,615.362C896.991,615.724,896.049,616.448,895.215,617.281C894.382,618.114,893.658,619.057,893.296,623.029C892.934,627,892.934,634,892.934,637.5L892.934,641" id="L_CADV_PS_0_0" class="edge-thickness-normal edge-pattern-solid edge-thickness-normal edge-pattern-solid flowchart-link" style="" marker-end="url(#mermaid-fe33f011-eea4-4fdf-a1ec-84d3e65ab240_flowchart-v2-pointEnd)"/><path d="M769.587,192L769.587,195.25C769.587,198.5,769.587,205,769.587,222.917C769.587,240.833,769.587,270.167,769.949,285.305C770.311,300.443,771.035,301.386,771.868,302.219C772.702,303.052,773.645,303.776,780.626,304.138C787.608,304.5,800.628,304.5,807.61,304.862C814.591,305.224,815.534,305.948,816.367,306.781C817.201,307.614,817.925,308.557,818.287,310.695C818.648,312.833,818.648,316.167,818.648,371.417C818.648,426.667,818.648,533.833,818.648,587.417L818.648,641" id="L_KUBELET_PS_0_0" class="edge-thickness-normal edge-pattern-solid edge-thickness-normal edge-pattern-solid flowchart-link" style="" marker-end="url(#mermaid-fe33f011-eea4-4fdf-a1ec-84d3e65ab240_flowchart-v2-pointEnd)"/><path d="M102.828,492L102.828,493.667C102.828,495.333,102.828,498.667,102.466,500.805C102.104,502.943,101.38,503.886,100.547,504.719C99.714,505.552,98.771,506.276,97.854,506.638C96.938,507,96.047,507,95.13,507.362C94.213,507.724,93.271,508.448,92.437,509.281C91.604,510.114,90.88,511.057,90.518,557.945C90.156,604.833,90.156,697.667,90.156,748.25C90.156,798.833,90.156,807.167,90.518,811.805C90.88,816.443,91.604,817.386,92.437,818.219C93.271,819.052,94.213,819.776,104.238,820.138C114.263,820.5,133.369,820.5,143.394,820.862C153.418,821.224,154.361,821.948,155.195,822.781C156.028,823.614,156.752,824.557,157.114,838.862C157.476,853.167,157.476,880.833,157.838,895.138C158.2,909.443,158.923,910.386,159.757,911.219C160.59,912.052,161.533,912.776,220.209,913.138C278.885,913.5,395.295,913.5,453.971,913.862C512.647,914.224,513.59,914.948,514.423,915.781C515.256,916.614,515.98,917.557,516.342,919.695C516.704,921.833,516.704,925.167,516.704,933.917C516.704,942.667,516.704,956.833,516.704,963.917L516.704,971" id="L_KSM_APISERVER_0_0" class="edge-thickness-normal edge-pattern-solid edge-thickness-normal edge-pattern-solid flowchart-link" style="" marker-end="url(#mermaid-fe33f011-eea4-4fdf-a1ec-84d3e65ab240_flowchart-v2-pointEnd)"/><path d="M353.151,492L353.151,496.167C353.151,500.333,353.151,508.667,352.789,513.305C352.427,517.943,351.703,518.886,350.87,519.719C350.037,520.552,349.094,521.276,309.123,521.638C269.153,522,190.155,522,150.184,522.362C110.213,522.724,109.271,523.448,108.437,524.281C107.604,525.114,106.88,526.057,106.518,570.445C106.156,614.833,106.156,702.667,106.156,748.25C106.156,793.833,106.156,797.167,106.518,799.305C106.88,801.443,107.604,802.386,108.437,803.219C109.271,804.052,110.213,804.776,141.724,805.138C173.234,805.5,235.312,805.5,266.822,805.862C298.333,806.224,299.275,806.948,300.109,807.781C300.942,808.614,301.666,809.557,302.028,823.862C302.39,838.167,302.39,865.833,302.752,880.138C303.114,894.443,303.837,895.386,304.671,896.219C305.504,897.052,306.447,897.776,346.625,898.138C386.803,898.5,466.216,898.5,506.395,898.862C546.573,899.224,547.515,899.948,548.349,900.781C549.182,901.614,549.906,902.557,550.268,907.195C550.63,911.833,550.63,920.167,550.63,931.417C550.63,942.667,550.63,956.833,550.63,963.917L550.63,971" id="L_KSS_APISERVER_0_0" class="edge-thickness-normal edge-pattern-solid edge-thickness-normal edge-pattern-solid flowchart-link" style="" marker-end="url(#mermaid-fe33f011-eea4-4fdf-a1ec-84d3e65ab240_flowchart-v2-pointEnd)"/><path d="M756.744,771L756.744,774.25C756.744,777.5,756.744,784,756.744,788.917C756.744,793.833,756.744,797.167,756.382,799.305C756.02,801.443,755.296,802.386,754.463,803.219C753.629,804.052,752.686,804.776,725.184,805.138C697.681,805.5,643.618,805.5,616.116,805.862C588.613,806.224,587.67,806.948,586.837,807.781C586.003,808.614,585.279,809.557,584.917,829.695C584.556,849.833,584.556,889.167,584.556,915.917C584.556,942.667,584.556,956.833,584.556,963.917L584.556,971" id="L_PS_APISERVER_0_0" class="edge-thickness-normal edge-pattern-solid edge-thickness-normal edge-pattern-solid flowchart-link" style="" marker-end="url(#mermaid-fe33f011-eea4-4fdf-a1ec-84d3e65ab240_flowchart-v2-pointEnd)"/><path d="M843.41,771L843.41,774.25C843.41,777.5,843.41,784,843.41,788.917C843.41,793.833,843.41,797.167,843.048,799.305C842.686,801.443,841.963,802.386,841.129,803.219C840.296,804.052,839.353,804.776,838.021,805.138C836.689,805.5,834.968,805.5,833.636,805.862C832.304,806.224,831.361,806.948,830.528,807.781C829.694,808.614,828.971,809.557,828.609,851.695C828.247,893.833,828.247,977.167,828.247,1020.917C828.247,1064.667,828.247,1068.833,828.247,1071.75C828.247,1074.667,828.247,1076.333,827.413,1077.167C826.58,1078,824.913,1078,823.963,1078C823.012,1078,822.777,1078,822.66,1106.75C822.543,1135.5,822.543,1193,822.543,1228.833C822.543,1264.667,822.543,1278.833,822.543,1285.917L822.543,1293" id="L_PS_GS_SERVICES_0_0" class="edge-thickness-normal edge-pattern-solid edge-thickness-normal edge-pattern-solid flowchart-link" style="" marker-end="url(#mermaid-fe33f011-eea4-4fdf-a1ec-84d3e65ab240_flowchart-v2-pointEnd)"/></g><g class="edgeLabels"><g class="edgeLabel"><g class="label" transform="translate(0, 0)"><foreignObject width="0" height="0"><div xmlns="http://www.w3.org/1999/xhtml" class="labelBkg" style="display: table-cell; white-space: nowrap; line-height: 1.5; max-width: 200px; text-align: center;"><span class="edgeLabel"></span></div></foreignObject></g></g><g class="edgeLabel" transform="translate(169.42578125, 561)"><g class="label" transform="translate(-47.26953125, -12)"><foreignObject width="94.5390625" height="24"><div xmlns="http://www.w3.org/1999/xhtml" class="labelBkg" style="display: table-cell; white-space: nowrap; line-height: 1.5; max-width: 200px; text-align: center;"><span class="edgeLabel"><p>HTTP scrape</p></span></div></foreignObject></g></g><g class="edgeLabel" transform="translate(679.8359375, 561)"><g class="label" transform="translate(-47.26953125, -12)"><foreignObject width="94.5390625" height="24"><div xmlns="http://www.w3.org/1999/xhtml" class="labelBkg" style="display: table-cell; white-space: nowrap; line-height: 1.5; max-width: 200px; text-align: center;"><span class="edgeLabel"><p>HTTP scrape</p></span></div></foreignObject></g></g><g class="edgeLabel" transform="translate(912.53125, 561)"><g class="label" transform="translate(-47.26953125, -12)"><foreignObject width="94.5390625" height="24"><div xmlns="http://www.w3.org/1999/xhtml" class="labelBkg" style="display: table-cell; white-space: nowrap; line-height: 1.5; max-width: 200px; text-align: center;"><span class="edgeLabel"><p>HTTP scrape</p></span></div></foreignObject></g></g><g class="edgeLabel" transform="translate(439.46223958333337, 561)"><g class="label" transform="translate(-70.14453125, -24)"><foreignObject width="140.2890625" height="48"><div xmlns="http://www.w3.org/1999/xhtml" class="labelBkg" style="display: table-cell; white-space: nowrap; line-height: 1.5; max-width: 200px; text-align: center;"><span class="edgeLabel"><p>HTTP scrape <br />(annotation-based)</p></span></div></foreignObject></g></g><g class="edgeLabel" transform="translate(971.0755962272381, 265.5)"><g class="label" transform="translate(-112.45703125, -24)"><foreignObject width="224.9140625" height="48"><div xmlns="http://www.w3.org/1999/xhtml" class="labelBkg" style="display: table; white-space: break-spaces; line-height: 1.5; max-width: 200px; text-align: center; width: 200px;"><span class="edgeLabel"><p>HTTP scrape <br />(nodes/proxy/metrics/cadvisor)</p></span></div></foreignObject></g></g><g class="edgeLabel" transform="translate(769.3568462272381, 265.5)"><g class="label" transform="translate(-47.26953125, -12)"><foreignObject width="94.5390625" height="24"><div xmlns="http://www.w3.org/1999/xhtml" class="labelBkg" style="display: table-cell; white-space: nowrap; line-height: 1.5; max-width: 200px; text-align: center;"><span class="edgeLabel"><p>HTTP scrape</p></span></div></foreignObject></g></g><g class="edgeLabel" transform="translate(157.18270786914923, 859.5)"><g class="label" transform="translate(-63.20703125, -12)"><foreignObject width="126.4140625" height="24"><div xmlns="http://www.w3.org/1999/xhtml" class="labelBkg" style="display: table-cell; white-space: nowrap; line-height: 1.5; max-width: 200px; text-align: center;"><span class="edgeLabel"><p>list/watch objects</p></span></div></foreignObject></g></g><g class="edgeLabel" transform="translate(302.07723911914934, 859.5)"><g class="label" transform="translate(-66.6875, -12)"><foreignObject width="133.375" height="24"><div xmlns="http://www.w3.org/1999/xhtml" class="labelBkg" style="display: table-cell; white-space: nowrap; line-height: 1.5; max-width: 200px; text-align: center;"><span class="edgeLabel"><p>list/watch services</p></span></div></foreignObject></g></g><g class="edgeLabel" transform="translate(584.5555601939002, 859.5)"><g class="label" transform="translate(-100, -24)"><foreignObject width="200" height="48"><div xmlns="http://www.w3.org/1999/xhtml" class="labelBkg" style="display: table; white-space: break-spaces; line-height: 1.5; max-width: 200px; text-align: center; width: 200px;"><span class="edgeLabel"><p>list/watch pods, nodes, services, endpoints</p></span></div></foreignObject></g></g><g class="edgeLabel" transform="translate(822.5427033376369, 1155.5)"><g class="label" transform="translate(-100, -60)"><foreignObject width="200" height="120"><div xmlns="http://www.w3.org/1999/xhtml" class="labelBkg" style="display: table; white-space: break-spaces; line-height: 1.5; max-width: 200px; text-align: center; width: 200px;"><span class="edgeLabel"><p>HTTPS remote_write <br />Basic Auth + Cloud-Account-Id header Snappy-compressed Protobuf</p></span></div></foreignObject></g></g></g></svg>